<svg width="48" height="50" viewBox="0 0 48 50" fill="none" xmlns="http://www.w3.org/2000/svg">
<path d="M9.67074 14.9123L16.0775 21.2657L12.5053 24.812L0 12.406L12.5053 0L16.0775 3.54637L9.67074 9.89975H27.7895C33.1496 9.89975 38.2903 12.0122 42.0805 15.7723C45.8707 19.5324 48 24.6322 48 29.9499C48 35.2675 45.8707 40.3673 42.0805 44.1275C38.2903 47.8876 33.1496 50 27.7895 50H5.05263V44.9875H27.7895C31.8096 44.9875 35.6651 43.4032 38.5077 40.5831C41.3504 37.763 42.9474 33.9381 42.9474 29.9499C42.9474 25.9617 41.3504 22.1368 38.5077 19.3167C35.6651 16.4966 31.8096 14.9123 27.7895 14.9123H9.67074Z" fill="black"/>
</svg>
