<svg width="60" height="60" viewBox="0 0 60 60" fill="none" xmlns="http://www.w3.org/2000/svg">
<path d="M17.5 52.5C16.125 52.5 14.9483 52.0108 13.97 51.0325C12.9917 50.0542 12.5017 48.8767 12.5 47.5V15C11.7917 15 11.1983 14.76 10.72 14.28C10.2417 13.8 10.0017 13.2067 10 12.5C9.99834 11.7933 10.2383 11.2 10.72 10.72C11.2017 10.24 11.795 10 12.5 10H22.5C22.5 9.29167 22.74 8.69833 23.22 8.22C23.7 7.74167 24.2933 7.50167 25 7.5H35C35.7083 7.5 36.3025 7.74 36.7825 8.22C37.2625 8.7 37.5017 9.29333 37.5 10H47.5C48.2083 10 48.8025 10.24 49.2825 10.72C49.7625 11.2 50.0017 11.7933 50 12.5C49.9983 13.2067 49.7583 13.8008 49.28 14.2825C48.8017 14.7642 48.2083 15.0033 47.5 15V47.5C47.5 48.875 47.0108 50.0525 46.0325 51.0325C45.0542 52.0125 43.8767 52.5017 42.5 52.5H17.5ZM42.5 15H17.5V47.5H42.5V15ZM25 42.5C25.7083 42.5 26.3025 42.26 26.7825 41.78C27.2625 41.3 27.5017 40.7067 27.5 40V22.5C27.5 21.7917 27.26 21.1983 26.78 20.72C26.3 20.2417 25.7067 20.0017 25 20C24.2933 19.9983 23.7 20.2383 23.22 20.72C22.74 21.2017 22.5 21.795 22.5 22.5V40C22.5 40.7083 22.74 41.3025 23.22 41.7825C23.7 42.2625 24.2933 42.5017 25 42.5ZM35 42.5C35.7083 42.5 36.3025 42.26 36.7825 41.78C37.2625 41.3 37.5017 40.7067 37.5 40V22.5C37.5 21.7917 37.26 21.1983 36.78 20.72C36.3 20.2417 35.7067 20.0017 35 20C34.2933 19.9983 33.7 20.2383 33.22 20.72C32.74 21.2017 32.5 21.795 32.5 22.5V40C32.5 40.7083 32.74 41.3025 33.22 41.7825C33.7 42.2625 34.2933 42.5017 35 42.5Z" fill="black"/>
</svg>
