<svg width="47" height="47" viewBox="0 0 47 47" fill="none" xmlns="http://www.w3.org/2000/svg">
<path d="M9.87622 12.518L0.572029 3.22174C0.39295 3.04876 0.250143 2.84188 0.151942 2.61317C0.05374 2.38446 0.00210944 2.1385 6.32994e-05 1.88964C-0.00198284 1.64078 0.045596 1.394 0.140024 1.16371C0.234452 0.933418 0.373837 0.724222 0.550047 0.548328C0.726258 0.372435 0.935764 0.233365 1.16634 0.139235C1.39692 0.0451053 1.64395 -0.00220046 1.89302 7.85975e-05C2.14209 0.00235766 2.38822 0.0541757 2.61703 0.152509C2.84584 0.250843 3.05277 0.393722 3.22572 0.572811L49.4965 46.8041C49.8279 47.1594 50.0083 47.6293 49.9997 48.1149C49.9911 48.6005 49.7943 49.0637 49.4506 49.4071C49.1069 49.7505 48.6432 49.9472 48.1572 49.9558C47.6713 49.9644 47.2009 49.7841 46.8454 49.4531L31.1283 33.7519L16.4942 48.8433C13.858 51.5622 9.31096 49.1082 10.1388 45.4147L13.3153 31.2504L9.3885 31.2354C8.68905 31.2324 8.00053 31.0619 7.3806 30.7383C6.76067 30.4146 6.2274 29.9473 5.82545 29.3753C5.42351 28.8034 5.1646 28.1436 5.07042 27.4511C4.97624 26.7586 5.04953 26.0536 5.28415 25.3953L9.87622 12.518ZM28.4746 31.1005L12.8125 15.4518L8.81824 26.6548C8.78518 26.7486 8.77503 26.849 8.78863 26.9476C8.80223 27.0461 8.8392 27.14 8.89645 27.2214C8.9537 27.3028 9.02958 27.3694 9.11778 27.4155C9.20597 27.4617 9.30393 27.4862 9.4035 27.4869L15.6613 27.5119C15.9419 27.513 16.2187 27.5769 16.4712 27.699C16.7238 27.8211 16.9457 27.9983 17.1207 28.2175C17.2957 28.4366 17.4192 28.6922 17.4822 28.9654C17.5452 29.2386 17.546 29.5224 17.4846 29.796L13.8005 46.2344L28.4746 31.1005ZM40.4375 18.7655L33.6969 25.7151L36.3481 28.3666L44.1591 20.3148C46.08 18.3331 44.6744 15.017 41.9131 15.017H32.0137L35.6453 4.13387C35.8019 3.66412 35.8445 3.16391 35.7696 2.67448C35.6946 2.18505 35.5044 1.72043 35.2144 1.31892C34.9244 0.917413 34.5431 0.590526 34.1018 0.365214C33.6606 0.139901 33.172 0.0226171 32.6765 0.0230335H16.5367C15.2136 0.0230335 14.0356 0.855197 13.5904 2.09719L12.665 4.70114L15.5988 7.63496L16.9744 3.77152H31.8086L27.6317 16.299C27.5379 16.5804 27.5123 16.88 27.5569 17.1732C27.6016 17.4665 27.7153 17.7449 27.8886 17.9857C28.062 18.2265 28.2901 18.4227 28.5541 18.5583C28.8182 18.6938 29.1106 18.7648 29.4075 18.7655H40.4375Z" fill="black"/>
</svg>
