<svg width="50" height="50" viewBox="0 0 50 50" fill="none" xmlns="http://www.w3.org/2000/svg">
<path d="M15.4688 5.89591C15.6495 5.38966 15.9823 4.95168 16.4217 4.64209C16.8611 4.3325 17.3855 4.16646 17.923 4.16675H31.3668C31.7794 4.16673 32.1861 4.26475 32.5533 4.45273C32.9206 4.6407 33.238 4.91326 33.4793 5.24794C33.7206 5.58261 33.8789 5.96983 33.9412 6.37769C34.0035 6.78556 33.968 7.20238 33.8376 7.59383L30.8126 16.6667H39.0626C41.3605 16.6667 42.5314 19.4313 40.9314 21.0834L17.8876 44.8667C15.6918 47.1334 11.9043 45.0876 12.5938 42.0084L15.2397 30.2001L11.9688 30.1876C11.3862 30.185 10.8127 30.0429 10.2964 29.7731C9.77998 29.5033 9.33578 29.1137 9.00098 28.6369C8.66618 28.1601 8.45052 27.61 8.37207 27.0327C8.29362 26.4554 8.35467 25.8677 8.5501 25.3188L15.4688 5.89591ZM18.2897 7.29175L11.4938 26.3688C11.4663 26.4471 11.4579 26.5308 11.4692 26.6129C11.4805 26.6951 11.5113 26.7733 11.559 26.8412C11.6067 26.9091 11.6699 26.9646 11.7433 27.0031C11.8168 27.0416 11.8984 27.062 11.9813 27.0626L17.1939 27.0834C17.4276 27.0843 17.6581 27.1376 17.8685 27.2394C18.0789 27.3412 18.2637 27.4889 18.4095 27.6716C18.5552 27.8543 18.6581 28.0674 18.7105 28.2952C18.763 28.5229 18.7637 28.7595 18.7126 28.9876L15.6438 42.6917L37.8314 19.7917H28.6439C28.3966 19.7912 28.153 19.732 27.933 19.619C27.7131 19.506 27.5231 19.3424 27.3787 19.1417C27.2343 18.941 27.1396 18.7088 27.1024 18.4644C27.0652 18.2199 27.0865 17.9701 27.1647 17.7355L30.6439 7.29175H18.2897Z" fill="black"/>
</svg>
