<svg width="47" height="59" viewBox="0 0 47 59" fill="none" xmlns="http://www.w3.org/2000/svg">
<path d="M10.0539 2.44864C10.3086 1.73174 10.7779 1.11153 11.3975 0.673127C12.0171 0.23472 12.7566 -0.000408939 13.5145 5.33909e-07H32.4715C33.0533 -2.33102e-05 33.6267 0.138778 34.1446 0.404968C34.6625 0.671158 35.11 1.05712 35.4503 1.53105C35.7905 2.00498 36.0138 2.55331 36.1016 3.13088C36.1895 3.70844 36.1394 4.2987 35.9556 4.85303L31.69 17.701H43.3233C46.5636 17.701 48.2146 21.6159 45.9584 23.9554L13.4646 57.6345C10.3683 60.8442 5.02754 57.9472 5.99992 53.5868L9.73079 36.8653L5.11861 36.8476C4.29708 36.844 3.48837 36.6427 2.76024 36.2607C2.0321 35.8786 1.40574 35.3269 0.933641 34.6517C0.461537 33.9765 0.157437 33.1975 0.0468179 32.38C-0.0638012 31.5625 0.0222827 30.7303 0.297857 29.953L10.0539 2.44864ZM14.0316 4.42525L4.44882 31.4399C4.40998 31.5507 4.39806 31.6692 4.41404 31.7856C4.43002 31.9019 4.47343 32.0128 4.54068 32.1089C4.60792 32.205 4.69704 32.2835 4.80063 32.3381C4.90422 32.3926 5.01928 32.4215 5.13624 32.4223L12.4863 32.4518C12.8159 32.4531 13.141 32.5286 13.4376 32.6727C13.7343 32.8169 13.995 33.026 14.2005 33.2848C14.406 33.5435 14.551 33.8452 14.625 34.1678C14.699 34.4903 14.7 34.8253 14.6279 35.1483L10.3007 54.5545L41.5871 22.1263H28.6319C28.2832 22.1255 27.9397 22.0417 27.6296 21.8817C27.3194 21.7216 27.0515 21.49 26.8479 21.2057C26.6443 20.9215 26.5108 20.5927 26.4583 20.2466C26.4059 19.9004 26.436 19.5467 26.5461 19.2144L31.4521 4.42525H14.0316Z" fill="black"/>
</svg>
