<svg width="50" height="50" viewBox="0 0 50 50" fill="none" xmlns="http://www.w3.org/2000/svg">
<path d="M9.50981 2.07524C9.7507 1.46769 10.1946 0.942099 10.7807 0.570568C11.3667 0.199038 12.0662 -0.000224489 12.7831 0.000122523H30.7141C31.2644 0.000102316 31.8068 0.11773 32.2967 0.343315C32.7866 0.5689 33.2099 0.895984 33.5317 1.29762C33.8535 1.69926 34.0647 2.16395 34.1478 2.65341C34.2309 3.14287 34.1835 3.64309 34.0096 4.11286L29.9777 15.001H40.9759C44.0435 15.001 45.6052 18.3187 43.4711 20.3013L41.6094 22.0314C41.2153 21.4667 40.6814 20.9917 40.0494 20.6435C39.4175 20.2952 38.7046 20.0831 37.9665 20.0238L39.3364 18.7512H27.0823C26.7525 18.7506 26.4276 18.6795 26.1342 18.5439C25.8409 18.4083 25.5875 18.212 25.3949 17.9711C25.2023 17.7302 25.076 17.4516 25.0264 17.1582C24.9768 16.8649 25.0052 16.5651 25.1095 16.2835L29.7499 3.75033H13.2722L4.20804 26.6441C4.17131 26.738 4.16004 26.8384 4.17515 26.937C4.19026 27.0356 4.23133 27.1296 4.29493 27.211C4.35854 27.2925 4.44284 27.3591 4.54082 27.4053C4.63881 27.4515 4.74764 27.476 4.85826 27.4767L11.8106 27.5017C12.1223 27.5027 12.4298 27.5667 12.7104 27.6889C12.991 27.811 13.2376 27.9883 13.4319 28.2076C13.6263 28.4268 13.7635 28.6825 13.8335 28.9558C13.9035 29.2292 13.9044 29.5131 13.8363 29.7868L9.74322 46.2327L31.5783 25.9566L27.5853 35.0521L12.7359 48.8429C9.80713 51.563 4.75545 49.1079 5.6752 45.4127L9.20416 31.2419L4.84159 31.2269C4.06452 31.2238 3.29958 31.0533 2.61085 30.7295C1.92212 30.4057 1.32967 29.9382 0.883112 29.366C0.436559 28.7938 0.148916 28.1336 0.0442841 27.4408C-0.0603482 26.748 0.0210768 26.0427 0.281737 25.3841L9.50981 2.07524ZM39.4365 23.689L49.8566 47.4278C50.0487 47.8694 50.0478 48.3602 49.8539 48.8012C49.66 49.2422 49.2875 49.6007 48.8116 49.8045C48.3357 50.0083 47.7916 50.0423 47.2889 49.8996C46.7862 49.7568 46.3623 49.4481 46.1026 49.0354L45.9803 48.8054L43.2072 42.4925H31.7867L29.0191 48.8054C28.834 49.227 28.4855 49.574 28.038 49.7823C27.5905 49.9905 27.0743 50.0458 26.585 49.9379L26.3154 49.8629C25.8468 49.6964 25.4611 49.3829 25.2297 48.9802C24.9983 48.5776 24.9368 48.1131 25.0567 47.6728L25.14 47.4278L35.5602 23.689C35.6663 23.4361 35.8335 23.2075 36.0497 23.0199C36.266 22.8322 36.5259 22.6902 36.8106 22.6039C37.3061 22.4531 37.8458 22.4709 38.3278 22.6539C38.7168 22.7989 39.0613 23.0589 39.2975 23.4264L39.4365 23.689ZM33.4317 38.7423H41.5622L37.4969 29.4793L33.4317 38.7423Z" fill="black"/>
</svg>
