<svg width="17" height="19" viewBox="0 0 17 19" fill="none" xmlns="http://www.w3.org/2000/svg">
<path d="M1.83618 11.6667C1.67848 11.6673 1.52387 11.623 1.3903 11.5392C1.25674 11.4554 1.1497 11.3354 1.08163 11.1931C1.01356 11.0509 0.987253 10.8922 1.00576 10.7356C1.02426 10.579 1.08683 10.4309 1.18618 10.3084L9.43617 1.80839C9.49806 1.73696 9.58239 1.68868 9.67533 1.6715C9.76826 1.65431 9.86428 1.66923 9.94762 1.71381C10.031 1.75838 10.0967 1.82997 10.134 1.91681C10.1712 2.00365 10.1779 2.10059 10.1528 2.19172L8.55284 7.20839C8.50566 7.33466 8.48982 7.47049 8.50667 7.60423C8.52352 7.73797 8.57256 7.86562 8.64958 7.97624C8.72661 8.08686 8.82932 8.17715 8.9489 8.23935C9.06849 8.30156 9.20138 8.33383 9.33618 8.33339H15.1695C15.3272 8.33285 15.4818 8.37707 15.6154 8.46091C15.7489 8.54474 15.856 8.66476 15.9241 8.80701C15.9921 8.94926 16.0184 9.1079 15.9999 9.26451C15.9814 9.42111 15.9189 9.56926 15.8195 9.69172L7.56951 18.1917C7.50762 18.2632 7.42329 18.3114 7.33036 18.3286C7.23742 18.3458 7.1414 18.3309 7.05807 18.2863C6.97473 18.2417 6.90902 18.1701 6.87173 18.0833C6.83444 17.9965 6.82778 17.8995 6.85284 17.8084L8.45284 12.7917C8.50002 12.6655 8.51587 12.5296 8.49902 12.3959C8.48217 12.2621 8.43313 12.1345 8.3561 12.0239C8.27907 11.9132 8.17636 11.823 8.05678 11.7608C7.93719 11.6985 7.8043 11.6663 7.66951 11.6667H1.83618Z" stroke="black" stroke-width="0.833333" stroke-linecap="round" stroke-linejoin="round"/>
<path d="M11.3281 7H10.6818L12.5511 1.90909H13.1875L15.0568 7H14.4105L12.8892 2.71449H12.8494L11.3281 7ZM11.5668 5.01136H14.1719V5.55824H11.5668V5.01136Z" fill="black"/>
</svg>
