<svg width="50" height="50" viewBox="0 0 50 50" fill="none" xmlns="http://www.w3.org/2000/svg">
<path d="M34.2324 14.5195L31.6328 10.4121C31.085 9.77344 30.334 9.375 29.4922 9.375H20.5078C19.666 9.375 18.915 9.77344 18.3672 10.4121L15.7676 14.5195C15.2197 15.1592 14.5137 15.625 13.6719 15.625H7.8125C6.9837 15.625 6.18884 15.9542 5.60279 16.5403C5.01674 17.1263 4.6875 17.9212 4.6875 18.75V37.5C4.6875 38.3288 5.01674 39.1237 5.60279 39.7097C6.18884 40.2958 6.9837 40.625 7.8125 40.625H42.1875C43.0163 40.625 43.8112 40.2958 44.3972 39.7097C44.9833 39.1237 45.3125 38.3288 45.3125 37.5V18.75C45.3125 17.9212 44.9833 17.1263 44.3972 16.5403C43.8112 15.9542 43.0163 15.625 42.1875 15.625H36.4258C35.5811 15.625 34.7803 15.1592 34.2324 14.5195Z" stroke="black" stroke-linecap="round" stroke-linejoin="round"/>
<path d="M12.1094 15.4297V13.2812H9.76562V15.4297M32.7891 27.8535V26.5537C32.7884 25.0714 32.3661 23.6199 31.5714 22.3687C30.7767 21.1175 29.6424 20.1181 28.301 19.4874C26.9596 18.8566 25.4665 18.6205 23.9959 18.8065C22.5254 18.9926 21.1381 19.5931 19.9961 20.5381M17.1875 25.2715V26.5713C17.1886 28.0505 17.6096 29.499 18.4015 30.7483C19.1934 31.9976 20.3238 32.9965 21.6611 33.6286C22.9984 34.2608 24.4877 34.5004 25.9557 34.3194C27.4238 34.1384 28.8103 33.5444 29.9541 32.6064" stroke="black" stroke-linecap="round" stroke-linejoin="round"/>
<path d="M19.1406 26.5625L17.1875 24.6094L15.2344 26.5625M34.7656 26.5625L32.8125 28.5156L30.8594 26.5625" stroke="black" stroke-linecap="round" stroke-linejoin="round"/>
</svg>
