<svg width="16" height="14" viewBox="0 0 16 14" fill="none" xmlns="http://www.w3.org/2000/svg">
<path d="M6.66671 10.6667L8.00004 12L6.66671 13.3334M4.33337 7.33337V2.33337H6.33337L7.00004 1.33337H9.00004L9.66671 2.33337H11.6667V7.33337H4.33337Z" stroke="black" stroke-linecap="round" stroke-linejoin="round"/>
<path d="M10.6667 11.7227C13.0213 11.2084 15 10.0334 15 8.66672C15 7.91605 14.504 7.22338 13.6667 6.66638M8 12C4.318 12 1 10.5077 1 8.66672C1 7.91605 1.496 7.22338 2.33333 6.66638" stroke="black" stroke-linecap="round" stroke-linejoin="round"/>
<path d="M8 5.66675C8.26522 5.66675 8.51957 5.56139 8.70711 5.37386C8.89464 5.18632 9 4.93196 9 4.66675C9 4.40153 8.89464 4.14718 8.70711 3.95964C8.51957 3.7721 8.26522 3.66675 8 3.66675C7.73478 3.66675 7.48043 3.7721 7.29289 3.95964C7.10536 4.14718 7 4.40153 7 4.66675C7 4.93196 7.10536 5.18632 7.29289 5.37386C7.48043 5.56139 7.73478 5.66675 8 5.66675Z" stroke="black" stroke-miterlimit="10"/>
</svg>
