<svg width="50" height="50" viewBox="0 0 50 50" fill="none" xmlns="http://www.w3.org/2000/svg">
<path d="M37.5 16.6667C37.5 17.7717 37.061 18.8315 36.2796 19.6129C35.4982 20.3943 34.4384 20.8333 33.3333 20.8333C32.2283 20.8333 31.1685 20.3943 30.3871 19.6129C29.6057 18.8315 29.1667 17.7717 29.1667 16.6667C29.1667 15.5616 29.6057 14.5018 30.3871 13.7204C31.1685 12.939 32.2283 12.5 33.3333 12.5C34.4384 12.5 35.4982 12.939 36.2796 13.7204C37.061 14.5018 37.5 15.5616 37.5 16.6667Z" fill="black"/>
<path fill-rule="evenodd" clip-rule="evenodd" d="M24.8813 2.60413H25.1188C29.9292 2.60413 33.6979 2.60413 36.6396 2.99997C39.6479 3.40413 42.0229 4.24997 43.8875 6.11247C45.7521 7.97705 46.5958 10.3521 47 13.3625C47.3958 16.3021 47.3958 20.0708 47.3958 24.8812V25.0646C47.3958 29.0416 47.3958 32.2958 47.1792 34.9458C46.9625 37.6125 46.5188 39.8354 45.5229 41.6854C45.0868 42.4993 44.5417 43.2333 43.8875 43.8875C42.0229 45.752 39.6479 46.5958 36.6375 47C33.6979 47.3958 29.9292 47.3958 25.1188 47.3958H24.8813C20.0708 47.3958 16.3021 47.3958 13.3604 47C10.3521 46.5958 7.97709 45.75 6.11251 43.8875C4.46042 42.2354 3.60626 40.1791 3.15417 37.625C2.70626 35.1187 2.62501 32 2.60834 28.1291C2.60556 27.143 2.60417 26.1 2.60417 25V24.8791C2.60417 20.0687 2.60417 16.3 3.00001 13.3583C3.40417 10.35 4.25001 7.97497 6.11251 6.11038C7.97709 4.2458 10.3521 3.40205 13.3625 2.99788C16.3021 2.60205 20.0708 2.60205 24.8813 2.60205M13.7771 6.09372C11.1146 6.45205 9.50834 7.13538 8.32292 8.3208C7.13542 9.5083 6.45417 11.1125 6.09584 13.7771C5.73334 16.4854 5.72917 20.0437 5.72917 24.9979C5.72917 26.0993 5.73056 27.1375 5.73334 28.1125C5.75001 32.0166 5.83751 34.875 6.22917 37.0771C6.61251 39.2333 7.26667 40.6187 8.32292 41.675C9.51042 42.8625 11.1146 43.5437 13.7792 43.902C16.4875 44.2645 20.0458 44.2687 25 44.2687C29.9542 44.2687 33.5125 44.2645 36.2208 43.902C38.8854 43.5437 40.4917 42.8604 41.6792 41.675C42.1167 41.2375 42.4729 40.7541 42.7708 40.2021C43.4625 38.9187 43.8604 37.2021 44.0646 34.6916C44.2688 32.1812 44.2708 29.052 44.2708 24.9979C44.2708 20.0437 44.2667 16.4854 43.9042 13.7771C43.5458 11.1125 42.8625 9.50622 41.6771 8.31872C40.4896 7.1333 38.8854 6.45205 36.2208 6.09372C33.5125 5.73122 29.9542 5.72705 25 5.72705C20.0458 5.72705 16.4854 5.73122 13.7771 6.09372Z" fill="black"/>
<path opacity="0.4" d="M42.9313 39.8875L37.0354 34.5812C35.9839 33.6346 34.6422 33.0727 33.2299 32.9876C31.8175 32.9024 30.4181 33.299 29.2604 34.1125L28.6375 34.55C27.8351 35.1139 26.8595 35.3766 25.8824 35.292C24.9053 35.2074 23.9894 34.7809 23.2958 34.0875L14.3583 25.15C13.4987 24.2911 12.3448 23.7909 11.1303 23.7507C9.91573 23.7104 8.73128 24.1332 7.81667 24.9333L5.72917 26.7583L5.73334 28.1125C5.75001 32.0187 5.83751 34.8771 6.22917 37.0791C6.61459 39.2354 7.26667 40.6208 8.32292 41.6771C9.51042 42.8646 11.1146 43.5458 13.7792 43.9041C16.4875 44.2666 20.0458 44.2708 25 44.2708C29.9542 44.2708 33.5146 44.2666 36.2229 43.9041C38.8854 43.5458 40.4917 42.8625 41.6771 41.6771C42.197 41.1588 42.6215 40.553 42.9313 39.8875Z" fill="black"/>
</svg>
