<svg width="50" height="50" viewBox="0 0 50 50" fill="none" xmlns="http://www.w3.org/2000/svg">
<path d="M8.33333 16.6666L7.59583 17.4041L6.86041 16.6666L7.59583 15.9291L8.33333 16.6666ZM18.75 40.625C18.4737 40.625 18.2088 40.5152 18.0134 40.3199C17.8181 40.1245 17.7083 39.8596 17.7083 39.5833C17.7083 39.307 17.8181 39.0421 18.0134 38.8467C18.2088 38.6514 18.4737 38.5416 18.75 38.5416V40.625ZM18.0125 27.8208L7.59583 17.4041L9.07083 15.9291L19.4875 26.3458L18.0125 27.8208ZM7.59583 15.9291L18.0125 5.51245L19.4875 6.98745L9.07083 17.4041L7.59583 15.9291ZM8.33333 15.625H30.2083V17.7083H8.33333V15.625ZM30.2083 40.625H18.75V38.5416H30.2083V40.625ZM42.7083 28.125C42.7083 31.4402 41.3914 34.6196 39.0472 36.9638C36.703 39.308 33.5235 40.625 30.2083 40.625V38.5416C32.971 38.5416 35.6205 37.4441 37.574 35.4906C39.5275 33.5371 40.625 30.8876 40.625 28.125H42.7083ZM30.2083 15.625C33.5235 15.625 36.703 16.9419 39.0472 19.2861C41.3914 21.6303 42.7083 24.8097 42.7083 28.125H40.625C40.625 25.3623 39.5275 22.7128 37.574 20.7593C35.6205 18.8058 32.971 17.7083 30.2083 17.7083V15.625Z" fill="black"/>
</svg>
