<svg width="58" height="58" viewBox="0 0 58 58" fill="none" xmlns="http://www.w3.org/2000/svg">
<g filter="url(#filter0_d_209_138)">
<path d="M29 26.9667L38.0167 35.9833C38.2759 36.2426 38.5944 36.3815 38.9722 36.4C39.35 36.4185 39.687 36.2796 39.9833 35.9833C40.2796 35.687 40.4278 35.3593 40.4278 35C40.4278 34.6407 40.2796 34.313 39.9833 34.0167L30.9667 25L39.9833 15.9833C40.2426 15.7241 40.3815 15.4056 40.4 15.0278C40.4185 14.65 40.2796 14.313 39.9833 14.0167C39.687 13.7204 39.3593 13.5722 39 13.5722C38.6407 13.5722 38.313 13.7204 38.0167 14.0167L29 23.0333L19.9833 14.0167C19.7241 13.7574 19.4056 13.6185 19.0278 13.6C18.65 13.5815 18.313 13.7204 18.0167 14.0167C17.7204 14.313 17.5722 14.6407 17.5722 15C17.5722 15.3593 17.7204 15.687 18.0167 15.9833L27.0333 25L18.0167 34.0167C17.7574 34.2759 17.6185 34.5954 17.6 34.975C17.5815 35.3509 17.7204 35.687 18.0167 35.9833C18.313 36.2796 18.6407 36.4278 19 36.4278C19.3593 36.4278 19.687 36.2796 19.9833 35.9833L29 26.9667ZM29.0083 50C25.5509 50 22.3009 49.3444 19.2583 48.0333C16.2157 46.7204 13.5685 44.9389 11.3167 42.6889C9.06481 40.4389 7.28241 37.7944 5.96944 34.7556C4.65648 31.7167 4 28.4676 4 25.0083C4 21.5491 4.65648 18.2991 5.96944 15.2583C7.28056 12.2157 9.05926 9.56852 11.3056 7.31667C13.5519 5.06481 16.1972 3.28241 19.2417 1.96944C22.2861 0.656482 25.5361 0 28.9917 0C32.4472 0 35.6972 0.656482 38.7417 1.96944C41.7843 3.28056 44.4315 5.06018 46.6833 7.30833C48.9352 9.55648 50.7176 12.2019 52.0306 15.2444C53.3435 18.287 54 21.5361 54 24.9917C54 28.4472 53.3444 31.6972 52.0333 34.7417C50.7222 37.7861 48.9407 40.4333 46.6889 42.6833C44.437 44.9333 41.7926 46.7157 38.7556 48.0306C35.7185 49.3454 32.4694 50.0018 29.0083 50ZM29 47.2222C35.2037 47.2222 40.4583 45.0694 44.7639 40.7639C49.0694 36.4583 51.2222 31.2037 51.2222 25C51.2222 18.7963 49.0694 13.5417 44.7639 9.23611C40.4583 4.93055 35.2037 2.77778 29 2.77778C22.7963 2.77778 17.5417 4.93055 13.2361 9.23611C8.93055 13.5417 6.77778 18.7963 6.77778 25C6.77778 31.2037 8.93055 36.4583 13.2361 40.7639C17.5417 45.0694 22.7963 47.2222 29 47.2222Z" fill="black"/>
</g>
<defs>
<filter id="filter0_d_209_138" x="0" y="0" width="58" height="58" filterUnits="userSpaceOnUse" color-interpolation-filters="sRGB">
<feFlood flood-opacity="0" result="BackgroundImageFix"/>
<feColorMatrix in="SourceAlpha" type="matrix" values="0 0 0 0 0 0 0 0 0 0 0 0 0 0 0 0 0 0 127 0" result="hardAlpha"/>
<feOffset dy="4"/>
<feGaussianBlur stdDeviation="2"/>
<feComposite in2="hardAlpha" operator="out"/>
<feColorMatrix type="matrix" values="0 0 0 0 0 0 0 0 0 0 0 0 0 0 0 0 0 0 0.25 0"/>
<feBlend mode="normal" in2="BackgroundImageFix" result="effect1_dropShadow_209_138"/>
<feBlend mode="normal" in="SourceGraphic" in2="effect1_dropShadow_209_138" result="shape"/>
</filter>
</defs>
</svg>
