<svg width="50" height="50" viewBox="0 0 50 50" fill="none" xmlns="http://www.w3.org/2000/svg">
<path fill-rule="evenodd" clip-rule="evenodd" d="M25 5.72925C19.8891 5.72925 14.9874 7.75956 11.3735 11.3735C7.75948 14.9875 5.72917 19.8891 5.72917 25.0001C5.72917 30.111 7.75948 35.0126 11.3735 38.6266C14.9874 42.2406 19.8891 44.2709 25 44.2709C30.1109 44.2709 35.0126 42.2406 38.6265 38.6266C42.2405 35.0126 44.2708 30.111 44.2708 25.0001C44.2708 19.8891 42.2405 14.9875 38.6265 11.3735C35.0126 7.75956 30.1109 5.72925 25 5.72925ZM2.60417 25.0001C2.60417 12.6313 12.6313 2.60425 25 2.60425C37.3688 2.60425 47.3958 12.6313 47.3958 25.0001C47.3958 37.3688 37.3688 47.3959 25 47.3959C12.6313 47.3959 2.60417 37.3688 2.60417 25.0001ZM17.4938 32.4022C17.6161 32.2372 17.7698 32.098 17.9459 31.9925C18.1221 31.887 18.3174 31.8172 18.5206 31.7872C18.7237 31.7572 18.9308 31.7676 19.13 31.8177C19.3291 31.8678 19.5165 31.9567 19.6813 32.0792C21.1979 33.2042 23.0292 33.8543 25 33.8543C26.9708 33.8543 28.8021 33.2022 30.3188 32.0792C30.483 31.9514 30.6712 31.8577 30.8722 31.8036C31.0732 31.7495 31.283 31.7361 31.4893 31.7642C31.6955 31.7923 31.8941 31.8613 32.0733 31.9672C32.2525 32.0731 32.4087 32.2138 32.5328 32.3809C32.6569 32.548 32.7464 32.7383 32.7959 32.9404C32.8455 33.1426 32.8541 33.3526 32.8214 33.5582C32.7886 33.7638 32.7151 33.9607 32.6052 34.1375C32.4953 34.3143 32.3511 34.4673 32.1813 34.5876C30.1075 36.1373 27.5888 36.9761 25 36.9793C22.4112 36.9761 19.8925 36.1373 17.8188 34.5876C17.4859 34.3408 17.2647 33.972 17.2037 33.5622C17.1428 33.1523 17.2471 32.7351 17.4938 32.4022Z" fill="black"/>
<path d="M33.3333 21.875C33.3333 23.6 32.4 25 31.25 25C30.1 25 29.1667 23.6 29.1667 21.875C29.1667 20.15 30.1 18.75 31.25 18.75C32.4 18.75 33.3333 20.15 33.3333 21.875ZM20.8333 21.875C20.8333 23.6 19.9 25 18.75 25C17.6 25 16.6667 23.6 16.6667 21.875C16.6667 20.15 17.6 18.75 18.75 18.75C19.9 18.75 20.8333 20.15 20.8333 21.875Z" fill="black"/>
</svg>
