<svg width="500" height="750" viewBox="0 0 500 750" fill="none" xmlns="http://www.w3.org/2000/svg">
<mask id="path-1-inside-1_329_19" fill="white">
<path d="M312.308 337.156H500V275.229H360.769L283.846 160.665C272.308 143.463 251.538 131.766 227.692 131.766C220.769 131.766 214.615 132.798 208.462 134.518L0 192.661V371.56H69.2308V245.298L150.385 222.592L0 750H69.2308L179.615 470.986L269.231 577.982V750H338.462V529.473L242.692 373.28L270.769 274.541M307.692 123.853C346.154 123.853 376.923 96.3303 376.923 61.9266C376.923 27.5229 346.154 0 307.692 0C269.231 0 238.462 27.5229 238.462 61.9266C238.462 96.3303 269.231 123.853 307.692 123.853Z"/>
</mask>
<path d="M500 337.156V367.156H530V337.156H500ZM500 275.229H530V245.229H500V275.229ZM360.769 275.229L335.863 291.953L344.777 305.229H360.769V275.229ZM283.846 160.665L258.932 177.377L258.94 177.388L283.846 160.665ZM208.462 134.518L216.521 163.415L216.53 163.413L216.538 163.411L208.462 134.518ZM0 192.661L-8.05971 163.763L-30 169.883L-30 192.661H0ZM0 371.56H-30V401.56H0V371.56ZM69.2308 371.56V401.56H99.2308V371.56H69.2308ZM69.2308 245.298L61.1474 216.408L39.2308 222.54V245.298H69.2308ZM150.385 222.592L179.235 230.818L193.938 179.254L142.301 193.701L150.385 222.592ZM0 750L-28.8501 741.774L-39.7499 780H0V750ZM69.2308 750V780H89.6245L97.127 761.036L69.2308 750ZM179.615 470.986L202.614 451.723L170.257 413.092L151.719 459.95L179.615 470.986ZM269.231 577.982H299.231V567.078L292.23 558.719L269.231 577.982ZM269.231 750H239.231V780H269.231V750ZM338.462 750V780H368.462V750H338.462ZM338.462 529.473H368.462V521.008L364.037 513.791L338.462 529.473ZM242.692 373.28L213.836 365.074L210.235 377.738L217.117 388.961L242.692 373.28ZM312.308 337.156V367.156H500V337.156V307.156H312.308V337.156ZM500 337.156H530V275.229H500H470V337.156H500ZM500 275.229V245.229H360.769V275.229V305.229H500V275.229ZM360.769 275.229L385.676 258.506L308.753 143.942L283.846 160.665L258.94 177.388L335.863 291.953L360.769 275.229ZM283.846 160.665L308.76 143.953C291.541 118.282 261.34 101.766 227.692 101.766V131.766V161.766C241.737 161.766 253.074 168.644 258.932 177.377L283.846 160.665ZM227.692 131.766V101.766C217.587 101.766 208.694 103.303 200.385 105.626L208.462 134.518L216.538 163.411C220.537 162.293 223.952 161.766 227.692 161.766V131.766ZM208.462 134.518L200.402 105.621L-8.05971 163.763L0 192.661L8.05971 221.558L216.521 163.415L208.462 134.518ZM0 192.661H-30V371.56H0H30V192.661H0ZM0 371.56V401.56H69.2308V371.56V341.56H0V371.56ZM69.2308 371.56H99.2308V245.298H69.2308H39.2308V371.56H69.2308ZM69.2308 245.298L77.3142 274.189L158.468 251.482L150.385 222.592L142.301 193.701L61.1474 216.408L69.2308 245.298ZM150.385 222.592L121.535 214.365L-28.8501 741.774L0 750L28.8501 758.226L179.235 230.818L150.385 222.592ZM0 750V780H69.2308V750V720H0V750ZM69.2308 750L97.127 761.036L207.512 482.023L179.615 470.986L151.719 459.95L41.3346 738.964L69.2308 750ZM179.615 470.986L156.617 490.249L246.232 597.245L269.231 577.982L292.23 558.719L202.614 451.723L179.615 470.986ZM269.231 577.982H239.231V750H269.231H299.231V577.982H269.231ZM269.231 750V780H338.462V750V720H269.231V750ZM338.462 750H368.462V529.473H338.462H308.462V750H338.462ZM338.462 529.473L364.037 513.791L268.268 357.598L242.692 373.28L217.117 388.961L312.886 545.154L338.462 529.473ZM242.692 373.28L271.548 381.485L299.625 282.747L270.769 274.541L241.913 266.336L213.836 365.074L242.692 373.28ZM307.692 123.853V153.853C359.489 153.853 406.923 115.957 406.923 61.9266H376.923H346.923C346.923 76.7038 332.818 93.8532 307.692 93.8532V123.853ZM376.923 61.9266H406.923C406.923 7.89647 359.489 -30 307.692 -30V0V30C332.818 30 346.923 47.1494 346.923 61.9266H376.923ZM307.692 0V-30C255.895 -30 208.462 7.89647 208.462 61.9266H238.462H268.462C268.462 47.1494 282.566 30 307.692 30V0ZM238.462 61.9266H208.462C208.462 115.957 255.895 153.853 307.692 153.853V123.853V93.8532C282.566 93.8532 268.462 76.7038 268.462 61.9266H238.462Z" fill="url(#paint0_linear_329_19)" mask="url(#path-1-inside-1_329_19)"/>
<defs>
<linearGradient id="paint0_linear_329_19" x1="250" y1="0" x2="250" y2="750" gradientUnits="userSpaceOnUse">
<stop offset="0.0001" stop-color="#47D62E"/>
<stop offset="0.5" stop-color="#E2AD39"/>
<stop offset="0.884615" stop-color="#D98E2B"/>
</linearGradient>
</defs>
</svg>
