<svg width="200" height="287" viewBox="0 0 200 287" fill="none" xmlns="http://www.w3.org/2000/svg">
<path d="M100 0C93.3696 0 87.0107 3.0102 82.3223 8.36838C77.6339 13.7266 75 20.9938 75 28.5714C75 44.4286 86.125 57.1429 100 57.1429C113.875 57.1429 125 44.4286 125 28.5714C125 20.9938 122.366 13.7266 117.678 8.36838C112.989 3.0102 106.63 0 100 0ZM75 71.4286C71.625 71.4286 68.75 73 66.375 75.4286H66.25L0 151.286L17.75 171.429L62.5 120.143V300H87.5V200H112.5V300H137.5V120.143L182.25 171.429L200 151.286L133.75 75.4286C131.25 73 128.375 71.4286 125 71.4286" fill="url(#paint0_linear_254_11)"/>
<defs>
<linearGradient id="paint0_linear_254_11" x1="100" y1="0" x2="100" y2="300" gradientUnits="userSpaceOnUse">
<stop stop-color="#06FF4D"/>
<stop offset="1" stop-color="#7961FF"/>
</linearGradient>
</defs>
</svg>
