<svg width="200" height="300" viewBox="0 0 200 300" fill="none" xmlns="http://www.w3.org/2000/svg">
<path d="M131.719 55.814C145.251 55.814 156.549 42.9767 156.549 27.907C156.549 20.5056 153.933 13.4073 149.276 8.17376C144.62 2.94019 138.305 0 131.719 0C117.939 0 106.89 12.2791 106.89 27.907C106.89 42.9767 117.939 55.814 131.719 55.814ZM86.9025 249.488L99.3172 188.372L125.512 216.279V300H150.341V195.349L124.146 167.442L131.719 125.581C140.226 136.537 150.721 145.318 162.498 151.335C174.276 157.352 187.063 160.465 200 160.465V132.558C176.288 132.558 156.549 118.605 146.493 98.7907L134.078 76.7442C129.112 68.093 121.664 62.7907 113.097 62.7907C109.249 62.7907 106.89 63.907 103.042 63.907L38.6096 94.6046V160.465H63.4389V112.744L85.6611 102.977L65.7976 216.279L4.96586 202.326L0 230.233L86.9025 249.488Z" fill="url(#paint0_linear_254_5)"/>
<defs>
<linearGradient id="paint0_linear_254_5" x1="100" y1="0" x2="100" y2="300" gradientUnits="userSpaceOnUse">
<stop stop-color="#C4C70F"/>
<stop offset="1" stop-color="#614747"/>
</linearGradient>
</defs>
</svg>
