<svg width="500" height="750" viewBox="0 0 500 750" fill="none" xmlns="http://www.w3.org/2000/svg">
<path d="M343.75 202.5H437.5C449.123 202.5 460.963 208.02 470.171 219.069C479.446 230.199 485 245.792 485 262.5V453.75H438.125V735H343.125V453.75H296.25V262.5C296.25 245.792 301.804 230.199 311.079 219.069C320.287 208.02 332.127 202.5 343.75 202.5ZM62.5 202.5H156.25C167.873 202.5 179.713 208.02 188.921 219.069C198.196 230.199 203.75 245.792 203.75 262.5V453.75H156.875V735H61.875V453.75H15V262.5C15 245.792 20.5545 230.199 29.8291 219.069C38.8933 208.192 50.5074 202.674 61.9551 202.504L62.5 202.5ZM109.375 15C120.998 15 132.838 20.5197 142.046 31.5693C151.321 42.6989 156.875 58.2922 156.875 75C156.875 91.7078 151.321 107.301 142.046 118.431C132.838 129.48 120.998 135 109.375 135L108.83 134.996C97.3824 134.826 85.7683 129.308 76.7041 118.431C67.4295 107.301 61.875 91.7078 61.875 75C61.875 58.2922 67.4295 42.6989 76.7041 31.5693C85.7683 20.6924 97.3824 15.1737 108.83 15.0039L109.375 15ZM390.625 15C402.248 15 414.088 20.5197 423.296 31.5693C432.571 42.6989 438.125 58.2922 438.125 75C438.125 91.7078 432.571 107.301 423.296 118.431C414.088 129.48 402.248 135 390.625 135C379.002 135 367.162 129.48 357.954 118.431C348.679 107.301 343.125 91.7078 343.125 75C343.125 58.2922 348.679 42.6989 357.954 31.5693C367.162 20.5197 379.002 15 390.625 15Z" stroke="url(#paint0_linear_329_7)" stroke-width="30"/>
<defs>
<linearGradient id="paint0_linear_329_7" x1="250" y1="0" x2="250" y2="750" gradientUnits="userSpaceOnUse">
<stop offset="0.0001" stop-color="#47D62E"/>
<stop offset="0.5" stop-color="#E2AD39"/>
<stop offset="0.884615" stop-color="#D98E2B"/>
</linearGradient>
</defs>
</svg>
