<svg width="200" height="300" viewBox="0 0 200 300" fill="none" xmlns="http://www.w3.org/2000/svg">
<path d="M0 0C0 38.5714 22.2857 73.7143 57.1429 90.2857V300H85.7143V200H114.286V300H142.857V90.1429C177.714 73.7143 200 38.5714 200 0H171.429C171.429 18.944 163.903 37.1122 150.508 50.5076C143.875 57.1404 136.001 62.4018 127.335 65.9914C118.668 69.581 109.38 71.4286 100 71.4286C81.056 71.4286 62.8878 63.9031 49.4924 50.5076C36.0969 37.1122 28.5714 18.944 28.5714 0M100 0C84.1429 0 71.4286 12.7143 71.4286 28.5714C71.4286 44.4286 84.1429 57.1429 100 57.1429C115.857 57.1429 128.571 44.4286 128.571 28.5714C128.571 12.7143 115.857 0 100 0Z" fill="url(#paint0_linear_254_2)"/>
<defs>
<linearGradient id="paint0_linear_254_2" x1="100" y1="0" x2="100" y2="300" gradientUnits="userSpaceOnUse">
<stop stop-color="#6DD8FF"/>
<stop offset="1" stop-color="#EFBABA"/>
</linearGradient>
</defs>
</svg>
