<svg width="500" height="750" viewBox="0 0 500 750" fill="none" xmlns="http://www.w3.org/2000/svg">
<path d="M125 202.5H218.779C243.689 202.452 267.61 207.238 286.943 215.802C306.439 224.437 319.014 235.87 324.751 247.167L324.911 247.482L325.086 247.791L474.212 510H297.5V735H108.75V453.75H15V262.5C15 249.253 24.1355 234.574 44.4365 222.394C64.4082 210.411 92.8999 202.5 125 202.5ZM218.75 15C249.762 15 278.761 22.4332 299.421 34.8291C320.235 47.3176 328.75 62.2605 328.75 75C328.75 87.7395 320.235 102.682 299.421 115.171C278.761 127.567 249.762 135 218.75 135C186.286 135 157.808 127.16 137.952 115.247C117.834 103.176 108.75 88.5205 108.75 75C108.75 61.5433 117.913 46.8749 138.167 34.7646C158.125 22.8311 186.618 15 218.75 15Z" stroke="url(#paint0_linear_329_17)" stroke-width="30"/>
<defs>
<linearGradient id="paint0_linear_329_17" x1="250" y1="0" x2="250" y2="750" gradientUnits="userSpaceOnUse">
<stop offset="0.0001" stop-color="#47D62E"/>
<stop offset="0.5" stop-color="#E2AD39"/>
<stop offset="0.884615" stop-color="#D98E2B"/>
</linearGradient>
</defs>
</svg>
