<svg width="500" height="750" viewBox="0 0 500 750" fill="none" xmlns="http://www.w3.org/2000/svg">
<path d="M250 202.5C296.807 202.5 331.923 223.264 342.44 246.55L342.576 246.849L342.725 247.143L475.609 510H318.333V735H181.667V510H24.3906L157.275 247.143L157.424 246.849L157.56 246.55C168.077 223.264 203.193 202.5 250 202.5ZM250 15C277.005 15 302.221 22.2798 320.176 34.3994C338.11 46.5049 346.111 61.4125 346.111 75C346.111 88.5875 338.11 103.495 320.176 115.601C302.221 127.72 277.005 135 250 135L248.735 134.995C222.209 134.772 197.499 127.531 179.824 115.601C161.89 103.495 153.889 88.5875 153.889 75C153.889 61.4125 161.89 46.5049 179.824 34.3994C197.779 22.2798 222.995 15 250 15Z" stroke="url(#paint0_linear_329_21)" stroke-width="30"/>
<defs>
<linearGradient id="paint0_linear_329_21" x1="250" y1="0" x2="250" y2="750" gradientUnits="userSpaceOnUse">
<stop offset="0.0001" stop-color="#47D62E"/>
<stop offset="0.5" stop-color="#E2AD39"/>
<stop offset="0.884615" stop-color="#D98E2B"/>
</linearGradient>
</defs>
</svg>
