<svg width="500" height="750" viewBox="0 0 500 750" fill="none" xmlns="http://www.w3.org/2000/svg">
<path d="M435.447 29.7158C442.761 16.3758 450.747 14.3896 455.488 15.1592C461.146 16.0776 470.656 22.0728 477.753 40.583L477.819 40.7568L477.891 40.9297C489.921 70.116 485.905 111.838 471.678 137.822L471.661 137.852L471.646 137.881L336.31 387.691L334.499 391.034V566.315H401.912C407.538 566.315 416.255 570.849 423.806 585.996C431.037 600.504 435.387 621.873 433.299 646.987C431.171 666.162 425.456 681.556 418.483 691.727C411.335 702.154 404.347 705.264 399.583 705.265H326.329C314.414 705.265 301.123 696.946 289.986 676.635C279.025 656.644 271.865 627.587 271.865 593.572V472.811H160.795V677.015C160.795 696.005 156.053 713.21 149.395 724.094C142.453 735.44 137.024 735.516 134.185 734.578L133.33 734.296L132.448 734.117L132.135 734.046C128.819 733.204 123.204 729.138 118.013 717.414C112.946 705.971 109.746 690.165 109.746 672.805V424.449C109.818 381.601 119.221 341.304 135.112 312.321C151.192 282.994 170.661 270.596 187.405 270.476H305.174L309.428 262.613L435.447 29.7158ZM70.749 44.2959C81.6768 44.2959 95.6166 52.4028 107.623 74.3008C119.421 95.819 126.498 126.033 126.498 158.331C126.498 190.629 119.421 220.843 107.623 242.361C95.6165 264.259 81.6768 272.366 70.749 272.366C59.8212 272.366 45.8815 264.259 33.875 242.361C22.0767 220.843 15 190.629 15 158.331C15 126.033 22.0767 95.819 33.875 74.3008C45.6938 52.7451 59.3859 44.5526 70.2344 44.3018L70.749 44.2959Z" stroke="url(#paint0_linear_329_5)" stroke-width="30"/>
<defs>
<linearGradient id="paint0_linear_329_5" x1="250" y1="0" x2="250" y2="750" gradientUnits="userSpaceOnUse">
<stop offset="0.0001" stop-color="#47D62E"/>
<stop offset="0.5" stop-color="#E2AD39"/>
<stop offset="0.884615" stop-color="#D98E2B"/>
</linearGradient>
</defs>
</svg>
