<svg width="500" height="750" viewBox="0 0 500 750" fill="none" xmlns="http://www.w3.org/2000/svg">
<path d="M485 502.5V622.5H436.613V735H369.839V622.5H321.451V502.5H485ZM64.5166 202.5H161.29C173.631 202.5 186.017 208.181 195.538 219.249C205.12 230.388 210.807 245.918 210.807 262.5V453.75H162.419V735H63.3867V453.75H15V262.5C15 245.918 20.686 230.388 30.2676 219.249C39.64 208.354 51.7886 202.679 63.9375 202.504L64.5166 202.5ZM403.226 315C415.567 315 427.952 320.681 437.474 331.749C447.055 342.888 452.742 358.418 452.742 375C452.742 391.582 447.055 407.112 437.474 418.251C427.952 429.319 415.567 435 403.226 435C390.885 435 378.499 429.319 368.978 418.251C359.396 407.112 353.71 391.582 353.71 375C353.71 358.418 359.396 342.888 368.978 331.749C378.35 320.853 390.498 315.179 402.647 315.004L403.226 315ZM112.903 15C125.244 15 137.63 20.6806 147.151 31.749C156.733 42.8877 162.419 58.4184 162.419 75C162.419 91.5816 156.733 107.112 147.151 118.251C137.63 129.319 125.244 135 112.903 135L112.325 134.996C100.176 134.822 88.0278 129.147 78.6553 118.251C69.0736 107.112 63.3867 91.5816 63.3867 75L63.3916 74.2236C63.5661 57.9342 69.2233 42.7137 78.6553 31.749C88.0278 20.8535 100.176 15.1784 112.325 15.0039L112.903 15Z" stroke="url(#paint0_linear_329_13)" stroke-width="30"/>
<defs>
<linearGradient id="paint0_linear_329_13" x1="250" y1="0" x2="250" y2="750" gradientUnits="userSpaceOnUse">
<stop offset="0.0001" stop-color="#47D62E"/>
<stop offset="0.5" stop-color="#E2AD39"/>
<stop offset="0.884615" stop-color="#D98E2B"/>
</linearGradient>
</defs>
</svg>
