<svg width="500" height="750" viewBox="0 0 500 750" fill="none" xmlns="http://www.w3.org/2000/svg">
<path d="M187.5 202.5C235.088 202.5 279.984 213.884 312.365 233.312C344.9 252.834 360 277.315 360 300V311.639L371.274 314.53C406.112 323.463 435.063 338.103 455 355.688C474.924 373.26 485 392.899 485 412.5V547.5H297.5V735H140V547.5H15V300C15 277.315 30.0995 252.834 62.6348 233.312C95.0158 213.884 139.912 202.5 187.5 202.5ZM187.5 15C219.964 15 248.442 22.8396 268.298 34.7529C288.416 46.8236 297.5 61.4795 297.5 75C297.5 88.5205 288.416 103.176 268.298 115.247C248.442 127.16 219.964 135 187.5 135C155.036 135 126.558 127.16 106.702 115.247C86.5843 103.176 77.5 88.5205 77.5 75C77.5 61.4795 86.5843 46.8236 106.702 34.7529C126.558 22.8396 155.036 15 187.5 15Z" stroke="url(#paint0_linear_329_15)" stroke-width="30"/>
<defs>
<linearGradient id="paint0_linear_329_15" x1="250" y1="0" x2="250" y2="750" gradientUnits="userSpaceOnUse">
<stop offset="0.0001" stop-color="#47D62E"/>
<stop offset="0.5" stop-color="#E2AD39"/>
<stop offset="0.884615" stop-color="#D98E2B"/>
</linearGradient>
</defs>
</svg>
