<svg width="500" height="750" viewBox="0 0 500 750" fill="none" xmlns="http://www.w3.org/2000/svg">
<path d="M375 202.5C390.522 202.5 408.332 217.374 413.028 242.731L413.117 243.211L413.237 243.685L480.725 510H401.667V735H348.333V510H269.275L336.713 243.877C344.396 216.361 360.232 202.5 375 202.5ZM125 202.5C140.522 202.5 158.332 217.374 163.028 242.731L163.117 243.211L163.237 243.685L230.725 510H151.667V735H98.333V510H19.2754L86.7129 243.877C94.396 216.361 110.232 202.5 125 202.5ZM125 15C134.055 15 144.04 19.838 152.23 30.8955C160.48 42.0321 165.556 57.866 165.556 75C165.556 92.134 160.48 107.968 152.23 119.104C144.04 130.162 134.055 135 125 135L124.148 134.985C115.323 134.691 105.704 129.816 97.7695 119.104C89.5202 107.968 84.4443 92.134 84.4443 75L84.459 73.3975C84.7645 56.8809 89.778 41.6841 97.7695 30.8955C105.704 20.1836 115.323 15.3089 124.148 15.0146L125 15ZM375 15C384.055 15 394.04 19.838 402.23 30.8955C410.48 42.0321 415.556 57.866 415.556 75C415.556 92.134 410.48 107.968 402.23 119.104C394.04 130.162 384.055 135 375 135L374.148 134.985C365.323 134.691 355.704 129.816 347.77 119.104C339.52 107.968 334.444 92.134 334.444 75C334.444 57.866 339.52 42.0321 347.77 30.8955C355.96 19.838 365.945 15 375 15Z" stroke="url(#paint0_linear_329_9)" stroke-width="30"/>
<defs>
<linearGradient id="paint0_linear_329_9" x1="250" y1="0" x2="250" y2="750" gradientUnits="userSpaceOnUse">
<stop offset="0.0001" stop-color="#47D62E"/>
<stop offset="0.5" stop-color="#E2AD39"/>
<stop offset="0.884615" stop-color="#D98E2B"/>
</linearGradient>
</defs>
</svg>
