<svg width="205" height="706" viewBox="0 0 205 706" fill="none" xmlns="http://www.w3.org/2000/svg">
<path d="M102.124 205.111L121.599 209.488L140.997 213.847V213.848C150.156 215.907 157.512 221.919 164.923 236.327V236.328C172.14 250.367 177.894 270.996 181.874 296.358L182.254 298.828C188.805 342.32 189.818 395.21 189.972 444.548H148.079L147.428 458.866L137.051 687.054C115.844 692.252 93.2429 692.388 71.4414 687.01L59.709 458.776L58.9775 444.547H15.126C15.6837 396.088 17.8507 343.976 25.0635 300.908L25.0625 300.907C29.3384 275.395 35.234 254.214 42.3838 239.403L43.0791 237.99C50.378 223.458 57.3445 217.399 64.6748 215.152L65.3857 214.946L84.3936 209.764L102.241 204.896L102.124 205.111ZM101.796 15.1348L102.005 15.1406H102.214C107.332 15.1408 116.272 19.6194 124.841 35.5889C132.987 50.7711 138.757 73.1571 138.757 99.8115C138.757 126.166 132.69 149.176 124.388 164.635L123.991 165.364L111.745 187.622L102.723 204.021L93.4668 187.842L81.1123 166.252C72.2515 150.76 65.6729 127.226 65.6729 99.8086C65.6729 74.8746 70.8244 53.3657 78.2686 38.0312C85.5128 23.1087 93.4739 16.6946 98.7275 15.0488L101.796 15.1348Z" stroke="url(#paint0_linear_333_40)" stroke-width="30"/>
<defs>
<linearGradient id="paint0_linear_333_40" x1="102.5" y1="0" x2="102.5" y2="706" gradientUnits="userSpaceOnUse">
<stop stop-color="#16E458"/>
<stop offset="0.5" stop-color="#E2AD39"/>
<stop offset="1" stop-color="#E2A522"/>
</linearGradient>
</defs>
</svg>
