<svg width="112" height="300" viewBox="0 0 112 300" fill="none" xmlns="http://www.w3.org/2000/svg">
<path d="M56 0C64.4869 0 72.6262 3.1607 78.6274 8.7868C84.6286 14.4129 88 22.0435 88 30C88 37.9565 84.6286 45.5871 78.6274 51.2132C72.6262 56.8393 64.4869 60 56 60C47.5131 60 39.3738 56.8393 33.3726 51.2132C27.3714 45.5871 24 37.9565 24 30C24 22.0435 27.3714 14.4129 33.3726 8.7868C39.3738 3.1607 47.5131 0 56 0ZM32 75H80C88.4869 75 96.6262 78.1607 102.627 83.7868C108.629 89.4129 112 97.0435 112 105V187.5H88V300H24V187.5H0V105C0 97.0435 3.37143 89.4129 9.37259 83.7868C15.3738 78.1607 23.5131 75 32 75Z" fill="url(#paint0_linear_254_9)"/>
<defs>
<linearGradient id="paint0_linear_254_9" x1="56" y1="0" x2="56" y2="300" gradientUnits="userSpaceOnUse">
<stop stop-color="#D5ACAC"/>
<stop offset="1" stop-color="#DA2EBA"/>
</linearGradient>
</defs>
</svg>
