<svg width="500" height="750" viewBox="0 0 500 750" fill="none" xmlns="http://www.w3.org/2000/svg">
<path d="M64.6777 15.0078C70.729 14.8131 81.6298 18.717 96.9463 38.0029C124.399 72.5706 133.362 84.9333 155.987 117.732L166.614 133.165L166.615 133.167C176.764 147.912 189.443 166.38 206.298 190.693L213.781 201.478L213.784 201.48C288.294 308.665 330.677 431.682 330.677 565.198C330.677 618.795 322.65 657.27 310.499 681.754C298.481 705.97 283.741 714.496 269.573 714.496H171.765C171.653 714.496 171.327 714.486 170.664 714.147C169.939 713.777 168.815 713.007 167.388 711.495C164.448 708.38 161.111 703.056 157.996 695.204C151.8 679.583 147.65 656.912 147.65 630.939C147.65 604.969 151.804 582.297 158.003 566.676C161.119 558.823 164.457 553.498 167.397 550.382C168.825 548.869 169.95 548.099 170.674 547.729C171.335 547.391 171.659 547.382 171.765 547.382H250.153L251.195 547.235C257.763 546.31 262.484 542.491 265.47 539C268.311 535.678 270.406 531.742 271.965 527.779L272.27 526.986C275.444 518.531 276.946 508.235 276.946 498.173L276.942 497.229C276.854 487.785 275.441 478.191 272.562 470.158L272.27 469.36C270.682 465.133 268.5 460.89 265.47 457.347C262.577 453.965 258.057 450.275 251.806 449.206L251.195 449.111L250.153 448.965H213.411L99.6865 267.036L71.9668 222.693V613.112C71.9668 667.326 66.5229 699.248 59.4346 717.093C55.941 725.888 52.4055 730.339 49.8027 732.522C47.4707 734.479 45.4672 735 43.4727 735C41.4785 735 39.4777 734.479 37.1484 732.524C34.5479 730.342 31.015 725.891 27.5234 717.096C20.4393 699.25 15 667.327 15 613.112V165.562C15 111.93 25.7683 60.4644 42.6504 33.1309C51.1371 19.3902 58.9062 15.1937 64.6777 15.0078ZM429.359 367.738C433.356 367.738 438.962 369.688 445.784 376.892C452.655 384.147 459.614 395.624 465.768 411.393C471.874 427.041 476.81 445.941 480.154 467.048C483.39 487.468 485.042 509.355 484.999 531.476L484.989 533.617C484.677 578.942 477.281 621.415 464.967 651.893C458.806 667.14 451.967 678.011 445.345 684.835C438.759 691.621 433.326 693.53 429.359 693.53C425.393 693.53 419.96 691.621 413.374 684.835C406.751 678.011 399.912 667.14 393.752 651.893C381.438 621.415 374.042 578.942 373.729 533.617L373.72 531.476C373.677 509.355 375.33 487.468 378.565 467.048C381.91 445.941 386.844 427.041 392.951 411.393C399.105 395.624 406.064 384.147 412.935 376.892C419.544 369.913 425.012 367.865 428.98 367.744L429.359 367.738Z" stroke="url(#paint0_linear_329_3)" stroke-width="30"/>
<defs>
<linearGradient id="paint0_linear_329_3" x1="250" y1="0" x2="250" y2="750" gradientUnits="userSpaceOnUse">
<stop offset="0.0001" stop-color="#47D62E"/>
<stop offset="0.5" stop-color="#E2AD39"/>
<stop offset="0.884615" stop-color="#D98E2B"/>
</linearGradient>
</defs>
</svg>
