<svg width="136" height="398" viewBox="0 0 136 398" fill="none" xmlns="http://www.w3.org/2000/svg">
<path d="M68.0059 15C75.565 15.0001 85.9453 23.2854 85.9453 39.2285C85.9453 55.1723 75.5643 63.457 68.0059 63.457C60.4478 63.4567 50.0674 55.1722 50.0674 39.2285L50.0752 38.4863C50.3913 23.0279 60.5662 15 68.0059 15ZM89.3096 231.24L89.0742 229.927C88.0865 224.42 85.2465 218.82 79.7256 215.222C74.4184 211.763 68.6464 211.475 64.2393 212.33C59.8778 213.176 55.8268 215.287 52.6729 218.244C49.6725 221.058 46.4904 225.642 46.0391 231.739L46.0039 232.334L45.9863 232.735L45.9902 233.138C46.4675 282.264 46.3424 331.381 46.3408 380.656C46.2966 380.955 46.2465 381.226 46.1953 381.473L45.8457 138.627L45.8428 136.68L45.3428 134.798L45.1973 134.277C43.6288 128.933 40.0756 124.757 35.4619 122.346C31.1122 120.073 26.6525 119.767 23.207 120.159C20.8434 120.428 18.3905 121.084 16.0596 122.185C17.6777 114.143 20.9433 108.78 24.5381 106.422C25.3617 105.912 26.8434 105.307 29.5713 105.232L30.1436 105.225H101.299C103.927 105.225 106.096 105.782 108.052 106.804C113.112 109.932 117.165 115.124 119.314 121.722C115.201 119.944 111.116 119.791 108.004 120.156C104.63 120.552 101.068 121.702 97.9346 123.752C95.2856 125.484 90.0002 129.901 89.4863 137.657L89.4541 138.152V381.148C89.4323 381.308 89.4089 381.46 89.3848 381.604C89.3504 381.48 89.3237 381.336 89.3096 381.165V231.24Z" stroke="url(#paint0_linear_333_45)" stroke-width="30"/>
<defs>
<linearGradient id="paint0_linear_333_45" x1="68" y1="0" x2="68" y2="398" gradientUnits="userSpaceOnUse">
<stop stop-color="#16E458"/>
<stop offset="0.5" stop-color="#E2AD39"/>
<stop offset="1" stop-color="#E2A522"/>
</linearGradient>
</defs>
</svg>
