<svg width="500" height="750" viewBox="0 0 500 750" fill="none" xmlns="http://www.w3.org/2000/svg">
<mask id="path-1-inside-1_329_23" fill="white">
<path d="M500 262.5H333.333V750H277.778V525H222.222V750H166.667V262.5H0V187.5H500M250 0C264.734 0 278.865 7.90176 289.284 21.967C299.702 36.0322 305.556 55.1088 305.556 75C305.556 94.8912 299.702 113.968 289.284 128.033C278.865 142.098 264.734 150 250 150C235.266 150 221.135 142.098 210.716 128.033C200.298 113.968 194.444 94.8912 194.444 75C194.444 33.375 219.167 0 250 0Z"/>
</mask>
<path d="M333.333 262.5V232.5H303.333V262.5H333.333ZM333.333 750V780H363.333V750H333.333ZM277.778 750H247.778V780H277.778V750ZM277.778 525H307.778V495H277.778V525ZM222.222 525V495H192.222V525H222.222ZM222.222 750V780H252.222V750H222.222ZM166.667 750H136.667V780H166.667V750ZM166.667 262.5H196.667V232.5H166.667V262.5ZM0 262.5H-30V292.5H0V262.5ZM0 187.5V157.5H-30V187.5H0ZM250 0V-30V0ZM250 150L250 180L250 150ZM500 262.5V232.5H333.333V262.5V292.5H500V262.5ZM333.333 262.5H303.333V750H333.333H363.333V262.5H333.333ZM333.333 750V720H277.778V750V780H333.333V750ZM277.778 750H307.778V525H277.778H247.778V750H277.778ZM277.778 525V495H222.222V525V555H277.778V525ZM222.222 525H192.222V750H222.222H252.222V525H222.222ZM222.222 750V720H166.667V750V780H222.222V750ZM166.667 750H196.667V262.5H166.667H136.667V750H166.667ZM166.667 262.5V232.5H0V262.5V292.5H166.667V262.5ZM0 262.5H30V187.5H0H-30V262.5H0ZM0 187.5V217.5H500V187.5V157.5H0V187.5ZM250 0L250 30C253.375 30 259.214 31.7741 265.177 39.8238L289.284 21.967L313.39 4.11016C298.516 -15.9706 276.093 -30 250 -30L250 0ZM289.284 21.967L265.177 39.8238C271.257 48.0319 275.556 60.6231 275.556 75H305.556H335.556C335.556 49.5944 328.148 24.0326 313.39 4.11016L289.284 21.967ZM305.556 75H275.556C275.556 89.3769 271.257 101.968 265.177 110.176L289.284 128.033L313.39 145.89C328.148 125.967 335.556 100.406 335.556 75H305.556ZM289.284 128.033L265.177 110.176C259.214 118.226 253.375 120 250 120L250 150L250 180C276.093 180 298.516 165.971 313.39 145.89L289.284 128.033ZM250 150L250 120C246.625 120 240.786 118.226 234.823 110.176L210.716 128.033L186.61 145.89C201.484 165.971 223.907 180 250 180L250 150ZM210.716 128.033L234.823 110.176C228.743 101.968 224.444 89.3769 224.444 75H194.444H164.444C164.444 100.406 171.852 125.967 186.61 145.89L210.716 128.033ZM194.444 75H224.444C224.444 59.8984 228.966 47.578 234.766 39.7475C240.54 31.9533 246.214 30 250 30V0V-30C222.953 -30 200.849 -15.2658 186.553 4.0338C172.284 23.297 164.444 48.4766 164.444 75H194.444Z" fill="url(#paint0_linear_329_23)" mask="url(#path-1-inside-1_329_23)"/>
<defs>
<linearGradient id="paint0_linear_329_23" x1="250" y1="0" x2="250" y2="750" gradientUnits="userSpaceOnUse">
<stop offset="0.0001" stop-color="#47D62E"/>
<stop offset="0.5" stop-color="#E2AD39"/>
<stop offset="0.884615" stop-color="#D98E2B"/>
</linearGradient>
</defs>
</svg>
