<svg width="500" height="750" viewBox="0 0 500 750" fill="none" xmlns="http://www.w3.org/2000/svg">
<path d="M55.5557 202.5H152.777C159.245 202.5 165.718 204.838 171.162 208.443C176.882 212.231 179.888 216.342 180.631 218.097L180.67 218.188L283.17 455.938L287.077 465H314.513L318.761 457.114C327.494 440.903 337.056 423.932 346.093 408.397C354.389 395.843 364.818 390 375 390H444.444C454.046 390 463.827 395.149 471.731 405.819C479.649 416.508 485 432.043 485 450V547.5H457.223V735H376.111V418.09L348.076 467.328L323.779 510H274.637L208.245 354.122L179.444 360V735H70.5557V472.5H15V262.5C15 244.543 20.3511 229.008 28.2686 218.319C36.1726 207.649 45.9542 202.5 55.5557 202.5ZM416.667 240C422.352 240 428.668 243.059 434.093 250.382C439.521 257.71 443.333 268.563 443.333 281.25C443.333 293.937 439.521 304.79 434.093 312.118C428.668 319.441 422.352 322.5 416.667 322.5C410.982 322.5 404.666 319.441 399.241 312.118C393.813 304.79 390 293.937 390 281.25C390 268.563 393.813 257.71 399.241 250.382C404.666 243.059 410.982 240 416.667 240ZM111.111 15C120.713 15.0001 130.494 20.1489 138.398 30.8193C146.316 41.508 151.667 57.0432 151.667 75C151.667 92.9183 146.267 108.454 138.309 119.161C130.345 129.875 120.55 135 111.111 135C101.732 135 91.9287 129.84 83.9287 119.04C75.9434 108.26 70.5557 92.7087 70.5557 75C70.5557 57.2913 75.9434 41.7401 83.9287 30.96C91.9287 20.1599 101.732 15 111.111 15Z" stroke="url(#paint0_linear_329_11)" stroke-width="30"/>
<defs>
<linearGradient id="paint0_linear_329_11" x1="250" y1="0" x2="250" y2="750" gradientUnits="userSpaceOnUse">
<stop offset="0.0001" stop-color="#47D62E"/>
<stop offset="0.5" stop-color="#E2AD39"/>
<stop offset="0.884615" stop-color="#D98E2B"/>
</linearGradient>
</defs>
</svg>
